<?xml version="1.0" encoding="UTF-8" standalone="no"?>
<!DOCTYPE svg PUBLIC "-//W3C//DTD SVG 1.1//EN"
 "http://www.w3.org/Graphics/SVG/1.1/DTD/svg11.dtd">
<!-- Generated by graphviz version 10.0.1 (0)
 -->
<!-- Pages: 1 -->
<svg width="320pt" height="384pt"
 viewBox="0.00 0.00 319.72 384.06" xmlns="http://www.w3.org/2000/svg" xmlns:xlink="http://www.w3.org/1999/xlink">
<g id="graph0" class="graph" transform="scale(1 1) rotate(0) translate(4 380.06)">
<polygon fill="white" stroke="none" points="-4,4 -4,-380.06 315.72,-380.06 315.72,4 -4,4"/>
<!-- web -->
<g id="node1" class="node">
<title>web</title>
<ellipse fill="none" stroke="black" cx="153.24" cy="-346.01" rx="81.85" ry="30.05"/>
<text text-anchor="middle" x="153.24" y="-349.96" font-family="Times,serif" font-size="14.00">Web Interface</text>
<text text-anchor="middle" x="153.24" y="-332.71" font-family="Times,serif" font-size="14.00">(Streamlit)</text>
</g>
<!-- auth -->
<g id="node2" class="node">
<title>auth</title>
<ellipse fill="none" stroke="black" cx="153.24" cy="-232.66" rx="85.56" ry="30.05"/>
<text text-anchor="middle" x="153.24" y="-236.61" font-family="Times,serif" font-size="14.00">Authentication</text>
<text text-anchor="middle" x="153.24" y="-219.36" font-family="Times,serif" font-size="14.00">(Flask&#45;Login)</text>
</g>
<!-- web&#45;&gt;auth -->
<g id="edge1" class="edge">
<title>web&#45;&gt;auth</title>
<path fill="none" stroke="black" d="M153.24,-315.46C153.24,-302.78 153.24,-287.75 153.24,-274.06"/>
<polygon fill="black" stroke="black" points="156.74,-274.47 153.24,-264.47 149.74,-274.47 156.74,-274.47"/>
<text text-anchor="middle" x="201.99" y="-284.66" font-family="Times,serif" font-size="14.00">authenticates</text>
</g>
<!-- inventory -->
<g id="node3" class="node">
<title>inventory</title>
<ellipse fill="none" stroke="black" cx="153.24" cy="-131.35" rx="107.5" ry="18"/>
<text text-anchor="middle" x="153.24" y="-126.68" font-family="Times,serif" font-size="14.00">Inventory Manager</text>
</g>
<!-- auth&#45;&gt;inventory -->
<g id="edge2" class="edge">
<title>auth&#45;&gt;inventory</title>
<path fill="none" stroke="black" d="M153.24,-202.13C153.24,-189.22 153.24,-174.12 153.24,-161.28"/>
<polygon fill="black" stroke="black" points="156.74,-161.32 153.24,-151.32 149.74,-161.32 156.74,-161.32"/>
<text text-anchor="middle" x="185.12" y="-171.3" font-family="Times,serif" font-size="14.00">manages</text>
</g>
<!-- db -->
<g id="node4" class="node">
<title>db</title>
<ellipse fill="none" stroke="black" cx="71.24" cy="-30.05" rx="71.24" ry="30.05"/>
<text text-anchor="middle" x="71.24" y="-34" font-family="Times,serif" font-size="14.00">PostgreSQL</text>
<text text-anchor="middle" x="71.24" y="-16.75" font-family="Times,serif" font-size="14.00">Database</text>
</g>
<!-- inventory&#45;&gt;db -->
<g id="edge3" class="edge">
<title>inventory&#45;&gt;db</title>
<path fill="none" stroke="black" d="M122.52,-113.81C114.8,-108.64 107.02,-102.41 100.99,-95.35 94.8,-88.11 89.63,-79.35 85.43,-70.67"/>
<polygon fill="black" stroke="black" points="88.66,-69.33 81.4,-61.61 82.27,-72.17 88.66,-69.33"/>
<text text-anchor="middle" x="156.87" y="-82.05" font-family="Times,serif" font-size="14.00">stores/retrieves</text>
</g>
<!-- api -->
<g id="node5" class="node">
<title>api</title>
<ellipse fill="none" stroke="black" cx="236.24" cy="-30.05" rx="75.48" ry="30.05"/>
<text text-anchor="middle" x="236.24" y="-34" font-family="Times,serif" font-size="14.00">Unimall B2B</text>
<text text-anchor="middle" x="236.24" y="-16.75" font-family="Times,serif" font-size="14.00">API Client</text>
</g>
<!-- inventory&#45;&gt;api -->
<g id="edge4" class="edge">
<title>inventory&#45;&gt;api</title>
<path fill="none" stroke="black" d="M191.28,-114.16C199.74,-109.13 208.03,-102.89 214.24,-95.35 220,-88.38 224.28,-79.82 227.45,-71.24"/>
<polygon fill="black" stroke="black" points="230.71,-72.53 230.44,-61.94 224.05,-70.39 230.71,-72.53"/>
<text text-anchor="middle" x="243.12" y="-82.05" font-family="Times,serif" font-size="14.00">syncs</text>
</g>
</g>
</svg>
