<?xml version="1.0" encoding="UTF-8" standalone="no"?>
<!DOCTYPE svg PUBLIC "-//W3C//DTD SVG 1.1//EN"
 "http://www.w3.org/Graphics/SVG/1.1/DTD/svg11.dtd">
<!-- Generated by graphviz version 10.0.1 (0)
 -->
<!-- Pages: 1 -->
<svg width="248pt" height="331pt"
 viewBox="0.00 0.00 247.75 331.25" xmlns="http://www.w3.org/2000/svg" xmlns:xlink="http://www.w3.org/1999/xlink">
<g id="graph0" class="graph" transform="scale(1 1) rotate(0) translate(4 327.25)">
<polygon fill="white" stroke="none" points="-4,4 -4,-327.25 243.75,-327.25 243.75,4 -4,4"/>
<!-- web -->
<g id="node1" class="node">
<title>web</title>
<path fill="lightblue" stroke="black" d="M164.25,-323.25C164.25,-323.25 72.5,-323.25 72.5,-323.25 66.5,-323.25 60.5,-317.25 60.5,-311.25 60.5,-311.25 60.5,-292.75 60.5,-292.75 60.5,-286.75 66.5,-280.75 72.5,-280.75 72.5,-280.75 164.25,-280.75 164.25,-280.75 170.25,-280.75 176.25,-286.75 176.25,-292.75 176.25,-292.75 176.25,-311.25 176.25,-311.25 176.25,-317.25 170.25,-323.25 164.25,-323.25"/>
<text text-anchor="middle" x="118.38" y="-305.95" font-family="Times,serif" font-size="14.00">Web Interface</text>
<text text-anchor="middle" x="118.38" y="-288.7" font-family="Times,serif" font-size="14.00">(Streamlit)</text>
</g>
<!-- auth -->
<g id="node2" class="node">
<title>auth</title>
<path fill="lightblue" stroke="black" d="M166.88,-227.5C166.88,-227.5 69.88,-227.5 69.88,-227.5 63.88,-227.5 57.88,-221.5 57.88,-215.5 57.88,-215.5 57.88,-197 57.88,-197 57.88,-191 63.88,-185 69.88,-185 69.88,-185 166.88,-185 166.88,-185 172.88,-185 178.88,-191 178.88,-197 178.88,-197 178.88,-215.5 178.88,-215.5 178.88,-221.5 172.88,-227.5 166.88,-227.5"/>
<text text-anchor="middle" x="118.38" y="-210.2" font-family="Times,serif" font-size="14.00">Authentication</text>
<text text-anchor="middle" x="118.38" y="-192.95" font-family="Times,serif" font-size="14.00">(Flask&#45;Login)</text>
</g>
<!-- web&#45;&gt;auth -->
<g id="edge1" class="edge">
<title>web&#45;&gt;auth</title>
<path fill="none" stroke="black" d="M118.38,-280.66C118.38,-268.58 118.38,-252.99 118.38,-239.3"/>
<polygon fill="black" stroke="black" points="121.88,-239.39 118.38,-229.39 114.88,-239.39 121.88,-239.39"/>
<text text-anchor="middle" x="167.12" y="-249.45" font-family="Times,serif" font-size="14.00">authenticates</text>
</g>
<!-- inventory -->
<g id="node3" class="node">
<title>inventory</title>
<path fill="lightblue" stroke="black" d="M183,-131.75C183,-131.75 53.75,-131.75 53.75,-131.75 47.75,-131.75 41.75,-125.75 41.75,-119.75 41.75,-119.75 41.75,-107.75 41.75,-107.75 41.75,-101.75 47.75,-95.75 53.75,-95.75 53.75,-95.75 183,-95.75 183,-95.75 189,-95.75 195,-101.75 195,-107.75 195,-107.75 195,-119.75 195,-119.75 195,-125.75 189,-131.75 183,-131.75"/>
<text text-anchor="middle" x="118.38" y="-109.08" font-family="Times,serif" font-size="14.00">Inventory Manager</text>
</g>
<!-- auth&#45;&gt;inventory -->
<g id="edge2" class="edge">
<title>auth&#45;&gt;inventory</title>
<path fill="none" stroke="black" d="M118.38,-184.71C118.38,-172.58 118.38,-157.02 118.38,-143.65"/>
<polygon fill="black" stroke="black" points="121.88,-143.67 118.38,-133.67 114.88,-143.67 121.88,-143.67"/>
<text text-anchor="middle" x="150.25" y="-153.7" font-family="Times,serif" font-size="14.00">manages</text>
</g>
<!-- db -->
<g id="node4" class="node">
<title>db</title>
<path fill="lightblue" stroke="black" d="M88.75,-42.5C88.75,-42.5 12,-42.5 12,-42.5 6,-42.5 0,-36.5 0,-30.5 0,-30.5 0,-12 0,-12 0,-6 6,0 12,0 12,0 88.75,0 88.75,0 94.75,0 100.75,-6 100.75,-12 100.75,-12 100.75,-30.5 100.75,-30.5 100.75,-36.5 94.75,-42.5 88.75,-42.5"/>
<text text-anchor="middle" x="50.38" y="-25.2" font-family="Times,serif" font-size="14.00">PostgreSQL</text>
<text text-anchor="middle" x="50.38" y="-7.95" font-family="Times,serif" font-size="14.00">Database</text>
</g>
<!-- inventory&#45;&gt;db -->
<g id="edge3" class="edge">
<title>inventory&#45;&gt;db</title>
<path fill="none" stroke="black" d="M69.09,-95.32C61.96,-90.69 55.54,-84.92 51.12,-77.75 46.83,-70.78 45.3,-62.32 45.18,-54.13"/>
<polygon fill="black" stroke="black" points="48.66,-54.61 45.72,-44.43 41.67,-54.22 48.66,-54.61"/>
<text text-anchor="middle" x="108" y="-64.45" font-family="Times,serif" font-size="14.00">stores/retrieves</text>
</g>
<!-- api -->
<g id="node5" class="node">
<title>api</title>
<path fill="lightblue" stroke="black" d="M227.75,-42.5C227.75,-42.5 145,-42.5 145,-42.5 139,-42.5 133,-36.5 133,-30.5 133,-30.5 133,-12 133,-12 133,-6 139,0 145,0 145,0 227.75,0 227.75,0 233.75,0 239.75,-6 239.75,-12 239.75,-12 239.75,-30.5 239.75,-30.5 239.75,-36.5 233.75,-42.5 227.75,-42.5"/>
<text text-anchor="middle" x="186.38" y="-25.2" font-family="Times,serif" font-size="14.00">Unimall B2B</text>
<text text-anchor="middle" x="186.38" y="-7.95" font-family="Times,serif" font-size="14.00">API Client</text>
</g>
<!-- inventory&#45;&gt;api -->
<g id="edge4" class="edge">
<title>inventory&#45;&gt;api</title>
<path fill="none" stroke="black" d="M146.35,-95.31C152.9,-90.25 159.4,-84.31 164.38,-77.75 169.82,-70.57 174.1,-61.87 177.39,-53.51"/>
<polygon fill="black" stroke="black" points="180.61,-54.89 180.64,-44.29 174.01,-52.56 180.61,-54.89"/>
<text text-anchor="middle" x="193.25" y="-64.45" font-family="Times,serif" font-size="14.00">syncs</text>
</g>
</g>
</svg>
